<svg enable-background="new 0 0 28.9 32" height="32" viewBox="0 0 28.9 32" width="28.9" xmlns="http://www.w3.org/2000/svg"><g><g id="Atomic_Orbit_x5F_Symbol"><g id="Atomic_Orbit_x5F_Symbol_1_" fill="#5fccff"><path d="m14.4 0c-4.4 0-8 7.2-8 16s3.6 16 8 16 8-7.2 8-16-3.6-16-8-16zm0 30c-3.3 0-6-6.3-6-14s2.7-14 6-14 6 6.3 6 14-2.7 14-6 14z"/><path d="m.6 8c-2.2 3.8 2.2 10.5 9.9 14.9s15.6 4.9 17.9 1.1-2.2-10.5-9.9-14.9-15.7-4.9-17.9-1.1zm25.9 15c-1.7 2.9-8.4 2.1-15.1-1.8s-10.8-9.3-9.1-12.2 8.4-2.1 15.1 1.8 10.8 9.3 9.1 12.2z"/><path d="m10.4 9.1c-7.6 4.4-12 11.1-9.8 14.9s10.2 3.3 17.9-1.1 12.1-11.1 9.9-14.9c-2.3-3.8-10.3-3.3-18 1.1zm1 1.7c6.7-3.9 13.5-4.7 15.1-1.8 1.7 2.9-2.4 8.3-9.1 12.2s-13.4 4.7-15.1 1.8 2.4-8.3 9.1-12.2z"/><circle cx="14.4" cy="16" r="2"/></g></g></g></svg>